<?xml version="1.0" standalone="no"?><svg xmlns="http://www.w3.org/2000/svg" viewBox="0 0 1440 320"><path fill="#d6712f" fill-opacity="1" d="M0,160L18.5,165.3C36.9,171,74,181,111,186.7C147.7,192,185,192,222,176C258.5,160,295,128,332,101.3C369.2,75,406,53,443,53.3C480,53,517,75,554,90.7C590.8,107,628,117,665,149.3C701.5,181,738,235,775,245.3C812.3,256,849,224,886,224C923.1,224,960,256,997,245.3C1033.8,235,1071,181,1108,176C1144.6,171,1182,213,1218,234.7C1255.4,256,1292,256,1329,218.7C1366.2,181,1403,107,1422,69.3L1440,32L1440,320L1421.5,320C1403.1,320,1366,320,1329,320C1292.3,320,1255,320,1218,320C1181.5,320,1145,320,1108,320C1070.8,320,1034,320,997,320C960,320,923,320,886,320C849.2,320,812,320,775,320C738.5,320,702,320,665,320C627.7,320,591,320,554,320C516.9,320,480,320,443,320C406.2,320,369,320,332,320C295.4,320,258,320,222,320C184.6,320,148,320,111,320C73.8,320,37,320,18,320L0,320Z"></path></svg>